<?xml version="1.0" encoding="utf-8"?>
<!-- Generator: Adobe Illustrator 27.1.1, SVG Export Plug-In . SVG Version: 6.00 Build 0)  -->
<svg version="1.1" id="Layer_1" xmlns="http://www.w3.org/2000/svg" xmlns:xlink="http://www.w3.org/1999/xlink" x="0px" y="0px"
	 viewBox="0 0 1920 500" style="enable-background:new 0 0 1920 500;" xml:space="preserve">
<style type="text/css">
	.st0{fill:#FF0000;}
	.st1{fill:#1E1E1E;}
</style>
<path class="st0" d="M171,226c0.48,0.34,3.65,2.55,7.69,5.95c8.01,6.75,32.32,27.26,28.31,47.05c-1.08,5.32-4,9-4,9
	c-3.67,3.67-6.75,6.28-8,7c-11.6,6.66-68.09,42.89-104.17,78c0,0,0,0,0,0c-1.95,1.9-3.66,3.61-5.07,5.04
	c-2.23,2.26-3.35,3.4-3.61,3.71c-1.08,1.31-1.79,2.4-2.14,2.25c-0.35-0.15-0.11-1.46,0-2c1.36-6.9,3-10,3-10c3.84-7.32,7-11,7-11
	c22.27-25.93,38-38,38-38s42.03-32.26,53-45c1.03-1.2,2.54-3.2,3-6c0.65-3.97-1.18-7.44-2.35-9.67c-0.94-1.78-1.98-3.25-5.65-7.33
	c-3.31-3.69-4.96-5.53-7.46-7.93c-4.8-4.6-22.24-19.3-52.54-61.07c-14.45-19.92-12.85-14.83-32-40C53.4,105.77,9.1,47.55,22,32
	c1.96-2.36,11.34-2.46,30-3c18.74-0.55,25.49,0.24,51.16,0.5c7.25,0.08,18.67,0.14,35.84,0.5c19.6,0.41,25.77,0.76,33,4
	c12.15,5.44,18.77,15.1,22,20c32.51,49.24,48.76,73.86,71,88c33.93,21.57,75.81,15.65,80,15c9.07-1.4,19.8-4.29,41-10
	c10.15-2.73,8.39-1.4,41-12c32.96-10.71,29.13-8.09,56-17c25.33-8.4,26.55-10.04,54-19c14.69-4.8,25.47-7.99,39-12
	c15.67-4.64,34.03-10.08,57-16c24.87-6.4,28.31-6.45,59-14c25.68-6.31,37.57-10.05,50-13c62.88-14.92,117.85-19.77,156-23
	c28.59-2.42,48.98-3.22,69-4c29.75-1.16,49.47-1.2,71,0c28.36,1.58,38.68,4.13,45,6c19.29,5.7,32.27,14.19,44,22
	c0,0,96.28,64.08,149,108c5.72,4.76,6,5,6,5c3.25,2.72,4.04,3.41,6,5c1.88,1.53,1.56,1.23,5,4c3.03,2.44,3.46,2.82,5,4
	c2,1.54,1.94,1.42,4,3c3.1,2.38,3.13,2.57,4,3c1.52,0.75,2.88,0.91,6,1c3.98,0.12,5.98,0.18,8,0c10.06-0.9,161.45,16.5,225,22
	c34.97,3.03,66.06,4.42,104,9c31.54,3.81,35.82,5.96,60,9c2.46,0.31,10.57,1.31,21,4c6.26,1.61,11.67,3.01,18,6
	c9.26,4.37,15.2,9.67,20,14c7.91,7.15,12.36,13.22,21,25c5.67,7.73,10.53,14.36,16,24c2.11,3.72,5.05,9.19,10,17
	c0.71,1.13,4.31,6.75,10,13c2.61,2.86,4.47,4.56,7,6c3.01,1.71,4.91,1.9,9,3c10.67,2.86,7.86,2.81,15,4c5.92,0.99,9.88,1.88,14,4
	c3.15,1.62,6.58,4.62,6,6c-0.72,1.73-7.11-0.58-23-2c-6.48-0.58-13-1-13-1c-9.24-0.6-9.87-0.39-12-1c-3.03-0.87-6.76-2.73-14-11
	c-5.58-6.37-9.03-11.73-13-18c-9.88-15.62-10.01-16.39-15-24c-6.88-10.49-11.89-17.02-16-22c-8.24-9.99-11.95-12.66-14-14
	c-5.32-3.48-10.43-5.19-18-7c-19.8-4.73-33-5-33-5c-27.05-0.56-53.98-3.7-81-5c-19-0.91-8.68-0.86-88-7c-34.04-2.63-51.06-3.95-68-5
	c-43.67-2.71-43.58-1.69-68-4c-18.81-1.78-48.7-5.2-63-7c-7.75-0.98-18.24-2.41-26-3c-1.66-0.13-5.21-0.37-10-1
	c-2.24-0.29-2.65-0.4-7-1c-6.32-0.88-6.12-0.75-7-1c-3.44-0.97-5.81-2.67-9-5c-3.39-2.48-5.67-4.69-6-5c-5.63-5.44-12.21-9.95-20-16
	c-16.82-13.05-73.93-60.15-118-92c-1.89-1.37-13.63-9.8-30-19c-11.82-6.65-19.12-9.79-25-12c-2.54-0.95-9.8-3.6-20-6
	c-9.84-2.31-20.1-3.86-41-5c-19.88-1.09-35.25-1.04-41-1c-11.43,0.07-26.08,0.42-70,3c-35.03,2.06-52.82,3.12-66,5
	c-7.07,1.01-10.47,1.66-51,10c-64.95,13.37-69.99,14.54-76,16c-17.25,4.21-15.49,4.31-67,19c-43.81,12.49-65.57,19.28-86,26
	c-30.92,10.17-26.68,10.19-84,31c-73.27,26.6-91.75,30.57-107,33c-27.29,4.34-44.43,7.07-68,3c-8.88-1.53-61.19-11.36-93-52
	c-14.22-18.17-25-38-25-38c-6.71-12.36-14.95-23.83-22-36c-2.56-4.43-7.06-12.3-16-16c-3.43-1.42-6.3-1.72-12-2
	c-14.99-0.73-26.76-0.19-32,0c-7.49,0.27-3.17-0.11-30,0c-28.46,0.12-29.87,0.55-31,2c-6.04,7.76,13.92,35.75,41,73
	C120.72,174.25,146.24,208.7,171,226z"/>
<g>
	<path class="st1" d="M340.83,261.03c4.48,0,8.34,0.11,11.6,0.32c3.25,0.21,6.26,0.54,9.04,0.96c2.77,0.43,5.65,1.02,8.64,1.76
		l-1.28,8c-3.2-0.42-6.14-0.77-8.8-1.04c-2.67-0.27-5.49-0.45-8.48-0.56c-2.99-0.11-6.56-0.16-10.72-0.16
		c-7.9,0-14.14,1.52-18.72,4.56c-4.59,3.04-7.84,8.03-9.76,14.96c-1.92,6.94-2.88,16.38-2.88,28.32c0,11.95,0.96,21.39,2.88,28.32
		c1.92,6.93,5.17,11.92,9.76,14.96c4.58,3.04,10.83,4.56,18.72,4.56c6.61,0,12.21-0.16,16.8-0.48c4.58-0.32,9.06-0.8,13.44-1.44
		l1.28,7.84c-4.48,1.18-9.1,2.03-13.84,2.56c-4.75,0.53-10.64,0.8-17.68,0.8c-10.35,0-18.64-1.84-24.88-5.52
		c-6.24-3.68-10.75-9.68-13.52-18c-2.78-8.32-4.16-19.52-4.16-33.6s1.38-25.28,4.16-33.6c2.77-8.32,7.28-14.32,13.52-18
		C322.19,262.87,330.48,261.03,340.83,261.03z"/>
	<path class="st1" d="M447.54,325.99l-0.16,7.68l-37.92,0.32c-4.06,0.11-7.02,1.2-8.88,3.28c-1.87,2.08-2.8,4.99-2.8,8.72v6.72
		c0,4.38,1.12,7.63,3.36,9.76c2.24,2.13,5.65,3.2,10.24,3.2c3.41,0.11,7.17-0.48,11.28-1.76c4.1-1.28,8.18-3.14,12.24-5.6
		c4.05-2.45,7.62-5.33,10.72-8.64v7.84c-1.28,1.6-3.12,3.36-5.52,5.28c-2.4,1.92-5.18,3.79-8.32,5.6c-3.15,1.82-6.61,3.31-10.4,4.48
		c-3.79,1.17-7.71,1.76-11.76,1.76c-4.48,0-8.38-0.8-11.68-2.4c-3.31-1.6-5.9-3.97-7.76-7.12c-1.87-3.14-2.8-6.96-2.8-11.44v-8.96
		c0-5.97,1.79-10.58,5.36-13.84c3.57-3.25,8.61-4.88,15.12-4.88H447.54z M428.02,293.83c5.33,0,9.84,0.78,13.52,2.32
		c3.68,1.55,6.48,4.06,8.4,7.52c1.92,3.47,2.88,8.13,2.88,14v55.68h-8l-1.6-16.96l-0.64-1.44v-37.28c0-4.91-1.15-8.64-3.44-11.2
		c-2.3-2.56-6.64-3.84-13.04-3.84c-4.7,0-10.14,0.21-16.32,0.64c-6.19,0.43-12.21,0.96-18.08,1.6l-0.96-7.52
		c3.62-0.64,7.47-1.2,11.52-1.68c4.05-0.48,8.27-0.9,12.64-1.28C419.28,294.02,423.65,293.83,428.02,293.83z"/>
	<path class="st1" d="M486.9,295.75l1.28,14.72l0.96,2.4v60.48h-10.08v-77.6H486.9z M525.62,293.83l-1.28,9.6h-3.84
		c-5.01,0-9.95,1.09-14.8,3.28c-4.85,2.19-10.7,5.31-17.52,9.36l-0.8-6.72c5.97-4.8,11.89-8.58,17.76-11.36
		c5.86-2.77,11.57-4.16,17.12-4.16H525.62z"/>
	<path class="st1" d="M550.1,295.75l1.28,14.72l0.96,2.4v60.48h-10.08v-77.6H550.1z M588.82,293.83l-1.28,9.6h-3.84
		c-5.01,0-9.95,1.09-14.8,3.28c-4.85,2.19-10.7,5.31-17.52,9.36l-0.8-6.72c5.97-4.8,11.89-8.58,17.76-11.36
		c5.86-2.77,11.57-4.16,17.12-4.16H588.82z"/>
	<path class="st1" d="M634.58,293.83c8.64,0,15.57,1.34,20.8,4c5.23,2.67,8.98,6.99,11.28,12.96c2.29,5.97,3.44,13.92,3.44,23.84
		s-1.15,17.87-3.44,23.84c-2.29,5.97-6.05,10.29-11.28,12.96c-5.23,2.67-12.16,4-20.8,4c-8.64,0-15.57-1.33-20.8-4
		c-5.23-2.67-9.02-6.99-11.36-12.96c-2.35-5.97-3.52-13.92-3.52-23.84s1.17-17.87,3.52-23.84c2.34-5.97,6.13-10.29,11.36-12.96
		C619.01,295.17,625.94,293.83,634.58,293.83z M634.58,302.63c-6.29,0-11.25,0.96-14.88,2.88c-3.63,1.92-6.21,5.2-7.76,9.84
		c-1.55,4.64-2.32,11.01-2.32,19.12c0,8.21,0.77,14.67,2.32,19.36c1.54,4.69,4.13,8,7.76,9.92c3.62,1.92,8.58,2.88,14.88,2.88
		c6.19,0,11.12-0.96,14.8-2.88c3.68-1.92,6.29-5.23,7.84-9.92c1.54-4.69,2.32-11.15,2.32-19.36c0-8.11-0.78-14.48-2.32-19.12
		c-1.55-4.64-4.16-7.92-7.84-9.84C645.7,303.59,640.77,302.63,634.58,302.63z"/>
	<path class="st1" d="M718.1,293.83c3.31,0,6.8,0.11,10.48,0.32c3.68,0.21,7.33,0.48,10.96,0.8c3.62,0.32,7.04,0.69,10.24,1.12
		l-0.96,7.52c-4.8-0.32-9.71-0.56-14.72-0.72c-5.02-0.16-9.92-0.24-14.72-0.24c-5.12-0.11-9.2,0.03-12.24,0.4
		c-3.04,0.38-5.28,1.44-6.72,3.2c-1.44,1.76-2.16,4.67-2.16,8.72c0,4.59,1.01,7.71,3.04,9.36c2.02,1.66,5.01,2.86,8.96,3.6
		l23.84,4.48c5.97,1.17,10.43,3.31,13.36,6.4c2.93,3.09,4.4,7.84,4.4,14.24c0,6.51-1.18,11.31-3.52,14.4
		c-2.35,3.09-5.92,5.15-10.72,6.16c-4.8,1.01-10.77,1.52-17.92,1.52c-3.1,0-7.23-0.11-12.4-0.32c-5.18-0.22-10.91-0.8-17.2-1.76
		l0.8-7.36c2.88,0.11,5.76,0.24,8.64,0.4c2.88,0.16,5.84,0.27,8.88,0.32c3.04,0.05,6.21,0.08,9.52,0.08
		c6.08-0.11,10.88-0.45,14.4-1.04c3.52-0.58,6.02-1.84,7.52-3.76c1.49-1.92,2.24-4.8,2.24-8.64c0-4.48-1.2-7.52-3.6-9.12
		c-2.4-1.6-5.47-2.77-9.2-3.52l-23.68-4.32c-3.95-0.85-7.2-2.1-9.76-3.76c-2.56-1.65-4.46-3.89-5.68-6.72
		c-1.23-2.83-1.84-6.37-1.84-10.64c0-6.18,1.06-10.8,3.2-13.84c2.13-3.04,5.39-5.04,9.76-6
		C705.67,294.15,711.27,293.73,718.1,293.83z"/>
	<path class="st1" d="M798.9,293.83c3.31,0,6.8,0.11,10.48,0.32c3.68,0.21,7.33,0.48,10.96,0.8c3.62,0.32,7.04,0.69,10.24,1.12
		l-0.96,7.52c-4.8-0.32-9.71-0.56-14.72-0.72c-5.02-0.16-9.92-0.24-14.72-0.24c-5.12-0.11-9.2,0.03-12.24,0.4
		c-3.04,0.38-5.28,1.44-6.72,3.2c-1.44,1.76-2.16,4.67-2.16,8.72c0,4.59,1.01,7.71,3.04,9.36c2.02,1.66,5.01,2.86,8.96,3.6
		l23.84,4.48c5.97,1.17,10.43,3.31,13.36,6.4c2.93,3.09,4.4,7.84,4.4,14.24c0,6.51-1.18,11.31-3.52,14.4
		c-2.35,3.09-5.92,5.15-10.72,6.16c-4.8,1.01-10.77,1.52-17.92,1.52c-3.1,0-7.23-0.11-12.4-0.32c-5.18-0.22-10.91-0.8-17.2-1.76
		l0.8-7.36c2.88,0.11,5.76,0.24,8.64,0.4c2.88,0.16,5.84,0.27,8.88,0.32c3.04,0.05,6.21,0.08,9.52,0.08
		c6.08-0.11,10.88-0.45,14.4-1.04c3.52-0.58,6.02-1.84,7.52-3.76c1.49-1.92,2.24-4.8,2.24-8.64c0-4.48-1.2-7.52-3.6-9.12
		c-2.4-1.6-5.47-2.77-9.2-3.52l-23.68-4.32c-3.95-0.85-7.2-2.1-9.76-3.76c-2.56-1.65-4.46-3.89-5.68-6.72
		c-1.23-2.83-1.84-6.37-1.84-10.64c0-6.18,1.06-10.8,3.2-13.84c2.13-3.04,5.39-5.04,9.76-6
		C786.47,294.15,792.07,293.73,798.9,293.83z"/>
	<path class="st1" d="M885.61,293.83c11.09,0,19.23,2.03,24.4,6.08c5.17,4.06,7.81,10.08,7.92,18.08c0.11,6.94-1.23,12.27-4,16
		c-2.77,3.74-7.41,5.6-13.92,5.6h-44.96v-8h42.72c3.94,0,6.61-1.28,8-3.84c1.39-2.56,2.02-5.76,1.92-9.6
		c-0.11-5.54-1.87-9.52-5.28-11.92c-3.42-2.4-8.85-3.6-16.32-3.6c-6.19,0-11.09,0.96-14.72,2.88c-3.63,1.92-6.19,5.15-7.68,9.68
		c-1.5,4.54-2.24,10.7-2.24,18.48c0,8.64,0.9,15.33,2.72,20.08c1.81,4.75,4.69,8.05,8.64,9.92c3.94,1.87,9.12,2.8,15.52,2.8
		c4.48,0,9.15-0.19,14-0.56c4.85-0.37,9.09-0.82,12.72-1.36l1.12,6.88c-2.24,0.85-5.09,1.55-8.56,2.08
		c-3.47,0.53-7.04,0.96-10.72,1.28c-3.68,0.32-6.96,0.48-9.84,0.48c-8.75,0-15.76-1.36-21.04-4.08c-5.28-2.72-9.15-7.09-11.6-13.12
		c-2.46-6.02-3.68-13.94-3.68-23.76c0-10.13,1.2-18.13,3.6-24c2.4-5.87,6.16-10.08,11.28-12.64
		C870.73,295.11,877.4,293.83,885.61,293.83z"/>
	<path class="st1" d="M947.85,295.75l1.28,14.72l0.96,2.4v60.48h-10.08v-77.6H947.85z M986.57,293.83l-1.28,9.6h-3.84
		c-5.01,0-9.95,1.09-14.8,3.28c-4.86,2.19-10.7,5.31-17.52,9.36l-0.8-6.72c5.97-4.8,11.89-8.58,17.76-11.36
		c5.87-2.77,11.57-4.16,17.12-4.16H986.57z"/>
	<path class="st1" d="M1011.21,263.11c2.24,0,3.36,1.12,3.36,3.36v9.44c0,2.24-1.12,3.36-3.36,3.36h-4.8
		c-2.24,0-3.36-1.12-3.36-3.36v-9.44c0-2.24,1.12-3.36,3.36-3.36H1011.21z M1013.77,295.75v77.6h-9.92v-77.6H1013.77z"/>
	<path class="st1" d="M1072.17,293.83c11.09,0,19.22,2.03,24.4,6.08c5.17,4.06,7.81,10.08,7.92,18.08c0.11,6.94-1.23,12.27-4,16
		c-2.77,3.74-7.42,5.6-13.92,5.6h-44.96v-8h42.72c3.94,0,6.61-1.28,8-3.84c1.38-2.56,2.02-5.76,1.92-9.6
		c-0.11-5.54-1.87-9.52-5.28-11.92c-3.42-2.4-8.86-3.6-16.32-3.6c-6.19,0-11.09,0.96-14.72,2.88c-3.63,1.92-6.19,5.15-7.68,9.68
		c-1.5,4.54-2.24,10.7-2.24,18.48c0,8.64,0.91,15.33,2.72,20.08c1.81,4.75,4.69,8.05,8.64,9.92c3.95,1.87,9.12,2.8,15.52,2.8
		c4.48,0,9.14-0.19,14-0.56c4.85-0.37,9.09-0.82,12.72-1.36l1.12,6.88c-2.24,0.85-5.09,1.55-8.56,2.08
		c-3.47,0.53-7.04,0.96-10.72,1.28c-3.68,0.32-6.96,0.48-9.84,0.48c-8.75,0-15.76-1.36-21.04-4.08c-5.28-2.72-9.15-7.09-11.6-13.12
		c-2.46-6.02-3.68-13.94-3.68-23.76c0-10.13,1.2-18.13,3.6-24c2.4-5.87,6.16-10.08,11.28-12.64
		C1057.29,295.11,1063.96,293.83,1072.17,293.83z"/>
	<path class="st1" d="M1184.33,262.95v82.56c0,2.67,0.75,4.7,2.24,6.08c1.49,1.39,3.62,2.08,6.4,2.08h38.56l1.12,18.4
		c-7.57,0.86-15.49,1.36-23.76,1.52c-8.27,0.16-16.51,0.24-24.72,0.24c-8,0-14.05-2.16-18.16-6.48c-4.11-4.32-6.16-9.84-6.16-16.56
		v-87.84H1184.33z"/>
	<path class="st1" d="M1270.41,262.95v110.4h-24.32v-110.4H1270.41z"/>
	<path class="st1" d="M1386.09,262.95v101.6c0,5.87-2.94,8.8-8.8,8.8h-13.44c-2.67,0-4.7-0.61-6.08-1.84
		c-1.39-1.23-2.67-3.07-3.84-5.52l-30.56-57.92c-1.28-2.45-2.54-5.17-3.76-8.16c-1.23-2.98-2.27-5.87-3.12-8.64h-1.76
		c0.32,2.88,0.58,5.79,0.8,8.72c0.21,2.94,0.32,5.84,0.32,8.72v64.64h-23.2v-101.6c0-5.86,2.99-8.8,8.96-8.8h13.28
		c2.56,0,4.5,0.61,5.84,1.84c1.33,1.23,2.64,3.07,3.92,5.52l29.6,56.16c1.28,2.46,2.61,5.17,4,8.16c1.39,2.99,2.72,6.08,4,9.28h1.92
		c-0.32-3.2-0.56-6.32-0.72-9.36s-0.24-6.05-0.24-9.04l-0.16-62.56H1386.09z"/>
	<path class="st1" d="M1452.16,260.71c8.75,0,16.16,0.93,22.24,2.8c6.08,1.87,10.96,4.96,14.64,9.28c3.68,4.32,6.37,10.19,8.08,17.6
		c1.71,7.42,2.56,16.67,2.56,27.76c0,11.09-0.85,20.35-2.56,27.76c-1.71,7.42-4.4,13.28-8.08,17.6s-8.56,7.42-14.64,9.28
		c-6.08,1.86-13.5,2.8-22.24,2.8c-8.75,0-16.16-0.94-22.24-2.8c-6.08-1.87-10.99-4.96-14.72-9.28c-3.74-4.32-6.46-10.19-8.16-17.6
		c-1.71-7.41-2.56-16.67-2.56-27.76c0-11.09,0.85-20.34,2.56-27.76c1.71-7.41,4.42-13.28,8.16-17.6c3.73-4.32,8.64-7.41,14.72-9.28
		C1436,261.65,1443.42,260.71,1452.16,260.71z M1452.16,280.07c-5.66,0-10.05,1.12-13.2,3.36c-3.15,2.24-5.39,6.11-6.72,11.6
		c-1.33,5.49-2,13.2-2,23.12c0,9.82,0.67,17.5,2,23.04c1.33,5.55,3.57,9.44,6.72,11.68c3.15,2.24,7.54,3.36,13.2,3.36
		c5.54,0,9.89-1.12,13.04-3.36c3.14-2.24,5.38-6.13,6.72-11.68c1.33-5.54,2-13.22,2-23.04c0-9.92-0.67-17.62-2-23.12
		c-1.33-5.49-3.58-9.36-6.72-11.6C1462.06,281.19,1457.71,280.07,1452.16,280.07z"/>
</g>
</svg>
