<svg id="Calque_1" data-name="Calque 1" xmlns="http://www.w3.org/2000/svg" viewBox="0 0 499.62 448.37"><defs><style>.cls-1{fill:#5f02fd;}.cls-2{fill:#8e25b2;}.cls-3{fill:#b03f80;}.cls-4{fill:#8c25b9;}.cls-5{fill:#670bf8;}.cls-6{fill:#fc7807;}.cls-7{fill:#f97509;}.cls-8{fill:#8720bf;}.cls-9{fill:#8420c6;}.cls-10{fill:#a0349a;}.cls-11{fill:#cc5453;}.cls-12{fill:#6f13ed;}.cls-13{fill:#eb6c23;}.cls-14{fill:#dd6239;}.cls-15{fill:#f37318;}.cls-16{fill:#ef6f1d;}.cls-17{fill:#e26430;}.cls-18{fill:#d25849;}.cls-19{fill:#f67410;}.cls-20{fill:#d75d42;}.cls-21{fill:#e6692a;}.cls-22{fill:#c54e5c;}.cls-23{fill:#7213e4;}.cls-24{fill:#c34e63;}.cls-25{fill:#ba476f;}.cls-26{fill:#7716db;}.cls-27{fill:#9933ae;}.cls-28{fill:#a53791;}.cls-29{fill:#7b18d4;}</style></defs><title>favicon</title><path class="cls-1" d="M100.12,615.68l-2.1-.33-5.94-1.58L90,613.33,68.73,603.11l-1.66-1.33L63.16,598c-.42-.55-.85-1.09-1.28-1.63L60.24,594l-1.54-3.27L56.3,582v-2l5.4-16.72L68.29,553l11.37-9.37c1.15,1.88,3.12,3.64,3.13,5.43a15.57,15.57,0,0,1-2.22,7.8c-7.43,12.24-7.33,19,1.35,26.38a22.33,22.33,0,0,0,8.68,4.59c9.38,2.33,18.84,4.43,28.38,5.94,3.87.61,8-.55,12-.91l6.59,0,2.32.41c1.1,1.46,1.9,3.45,3.36,4.3,8.43,5,17,9.57,25.51,14.45,1.58.9,2.77,2.47,4.93,4.47-4.94.62-8.65,1.42-12.37,1.47-12.65.16-25.3.1-38,0-4.07,0-8.15-.28-12.23-.43l-3.17-.35Z" transform="translate(-56.24 -171.97)"/><path class="cls-2" d="M347.69,517.87c-.2,1-.41,2.07-.61,3.1L345,522a14.4,14.4,0,0,1-2.8-.94q-17.94-10.17-35.83-20.41c-22.26-12.77-44.55-25.49-66.72-38.42-3.84-2.24-7.12-5.43-10.66-8.18l19.75,2.54,2.22.25,8.85,1.6,2.15.25c1.37.77,2.67,2,4.14,2.23,9.51,1.61,18.72,3.07,27.37,8.54,16.48,10.42,33.82,19.48,50.71,29.26a6.25,6.25,0,0,1,2.67,4.16C347.41,507.85,347.45,512.87,347.69,517.87Z" transform="translate(-56.24 -171.97)"/><path class="cls-3" d="M216.23,309.58,181,340.85c-.81-1-1.41-2.36-2.45-3-7.05-4.34-14.08-8.72-21.35-12.68-3.41-1.86-7.31-2.81-11-4.17,4.2-5.3,8.08-10.9,12.7-15.81,6-6.37,12.61-12.19,18.95-18.25a21.91,21.91,0,0,1,3.69,1.34q15.67,8.91,31.25,18C214.09,307.06,215.07,308.46,216.23,309.58Z" transform="translate(-56.24 -171.97)"/><path class="cls-4" d="M229,454.05c3.54,2.75,6.82,5.94,10.66,8.18,22.17,12.93,44.46,25.65,66.72,38.42q17.89,10.26,35.83,20.41a14.4,14.4,0,0,0,2.8.94c.22,1,.45,1.92.68,2.88q-3.7,7.36-7.42,14.72c-1.21-1.76-2.12-3.88-3.7-5.2a41,41,0,0,0-7.52-4.71c-7-3.64-14-7.14-21-10.69-.74-2.33-1.47-4.67-2.2-7L297,504.3,292,501l-2-.92-10.6-4.88L278,495l-3.79-1.4L272,493l-3.86-1.33-2.14-.58-9.44-2.9L255,488c0-.34,0-.67,0-1-.45-1.06-.6-2.63-1.4-3.09-16.78-9.86-33.68-19.53-50.45-29.42-3-1.75-5.44-4.31-8.15-6.5l3.49-.19L201,448l6.75,1.5,2.22.3,7.87,1.51,3.12.43Z" transform="translate(-56.24 -171.97)"/><path class="cls-5" d="M111.18,617.54c4.08.15,8.16.42,12.23.43,12.66.06,25.31.12,38,0,3.72,0,7.43-.85,12.37-1.47-2.16-2-3.35-3.57-4.93-4.47-8.46-4.88-17.08-9.5-25.51-14.45-1.46-.85-2.26-2.84-3.36-4.3,7.6-.42,15.21-.68,22.79-1.33,2.47-.21,4.86-1.43,7.28-2.19l2.15-.32c8.36-1.17,16.71-2.38,25.08-3.45,1.6-.2,3.57-.37,4.87.35,6.77,3.77,13.41,7.78,20,11.79,3.37,2,6.63,4.26,10,6.42L226,608.28l-2.1.41c-6.23,1.08-12.45,2.13-18.66,3.29-.49.09-.83.94-1.23,1.44l-2.1.3L195,615c-8.15,1.23-16.26,2.76-24.45,3.62-17.87,1.9-35.79,2.57-53.69.26A57.14,57.14,0,0,1,111.18,617.54Z" transform="translate(-56.24 -171.97)"/><path class="cls-6" d="M551.41,220l.66,2.85c.22,1.72.45,3.44.67,5.15-7.24.17-11.77-5.44-17.49-8.43-9.48-4.95-18.57-10.62-27.88-15.9-6.86-3.9-13.84-7.59-20.69-11.5-7.44-4.24-14.85-8.52-22.14-13-2.79-1.71-6.79-2.62-6.54-7.2l8,.11,2.88.12,5.09.58,4.8.66L484,174l1.84.35,2.15.58,1.87.37L506,179.65l2.49,1.16c18.9,6.52,33.29,18.17,41.72,36.62Z" transform="translate(-56.24 -171.97)"/><path class="cls-7" d="M458,172c-.25,4.58,3.75,5.49,6.54,7.2,7.29,4.48,14.7,8.76,22.14,13,6.85,3.91,13.83,7.6,20.69,11.5,9.31,5.28,18.4,11,27.88,15.9,5.72,3,10.25,8.6,17.49,8.43q.13,10,.26,20c-2.81-1.31-5.66-2.54-8.41-4-4.47-2.29-8.88-4.7-13.31-7.07l-.36-1.47-1.14-3c-1-8.19-6-13.48-12.79-17.46l-1-.77c-6.22-6.15-13.92-8.62-22.44-9.07l-1.58-.12-13.78-1.58L468,203.38c-.76-1.17-1.26-2.78-2.33-3.42-8.7-5.18-17.81-9.74-26.17-15.42-4.72-3.21-11.59-4.16-13.49-10.94l2.12-.24,5.84-.65,5.09-.48,2.88-.16Z" transform="translate(-56.24 -171.97)"/><path class="cls-8" d="M195,448c2.71,2.19,5.19,4.75,8.15,6.5,16.77,9.89,33.67,19.56,50.45,29.42.8.46,1,2,1.4,3.09l-12.87-2.32-2.13-.38-18.81-4.75-2.19-.38L214,477c-1.66-1.48-3.13-3.29-5-4.39-23.17-13.52-46.34-27-69.68-40.28-5.21-3-11.05-4.81-16.6-7.18-.51-1.39-1-2.79-1.52-4.18L120.4,419c-.2-1.13-.39-2.26-.58-3.4l-1.45-4.6-.36-3c4.24,1.73,8.49,3.43,12.72,5.19,4.5,1.87,9,3.79,13.48,5.69l0-.09,3.3,6.22,11.5,9.51,2.36,1.3,1.64.89,2.5,1.07,2.51,1.14,4.55,1.83L174,441l3.83,1.36,2.12.5,4.9,1.46,2.12.45Z" transform="translate(-56.24 -171.97)"/><path class="cls-9" d="M306.05,519c7,3.55,14,7,21,10.69a41,41,0,0,1,7.52,4.71c1.58,1.32,2.49,3.44,3.7,5.2a80.78,80.78,0,0,1-24.11,26.77c-1.09-1.31-1.94-3-3.31-3.86-5.44-3.38-10.95-6.68-16.63-9.63-3.35-1.73-7.08-2.74-10.64-4.07l4.6-3.82,1.77-1.64,4.43-4.38,2.56-3,1.5-2c.5-.66,1-1.33,1.49-2l.54-1,2.43-4.11,1-2.88Z" transform="translate(-56.24 -171.97)"/><path class="cls-10" d="M125.8,355.35l13-23.89c2.2,1.81,4.2,4,6.64,5.36,8.58,4.92,17.32,9.58,26,14.34L154.11,375a11.75,11.75,0,0,1-3.32-.73c-7.75-4.33-15.36-8.91-23.16-13.12C124.76,359.65,125.84,357.46,125.8,355.35Z" transform="translate(-56.24 -171.97)"/><path class="cls-9" d="M122.71,425.1c5.55,2.37,11.39,4.22,16.6,7.18C162.65,445.52,185.82,459,209,472.56c1.89,1.1,3.36,2.91,5,4.4l-.89.7-2.12-.39-17.53-5-1.49-.18-4.8-1.49L185,470l-27.49-10.74L155,458.05l-3.38-1.82L147,453.54l-2.17-1.39L141,449.41l-3-2.36L131,440,126.38,434Z" transform="translate(-56.24 -171.97)"/><path class="cls-11" d="M281,266.94l-20,11.87c-.91-1.39-1.51-3.3-2.79-4.08-8.3-5-16.7-9.9-25.17-14.66-4.12-2.31-8.44-4.25-12.67-6.36l20.5-13.14c1.1,5.35,6.3,6,9.89,8.22C260.7,255.05,270.88,260.92,281,266.94Z" transform="translate(-56.24 -171.97)"/><path class="cls-12" d="M226,608.28l6.16-3.77c-3.35-2.16-6.61-4.38-10-6.42-6.64-4-13.28-8-20-11.79-1.3-.72-3.27-.55-4.87-.35-8.37,1.07-16.72,2.28-25.08,3.45,13.72-3.06,27.47-6,41.16-9.22,6.25-1.46,12.39-3.39,18.57-5.11l-5.34,3.16a48,48,0,0,0,4,3.06c6.88,4,14.12,7.47,20.58,12,3.66,2.59,6.73,4.49,11.13,2.8-9.72,3.56-19.4,7.18-29.16,10.63A56,56,0,0,1,226,608.28Z" transform="translate(-56.24 -171.97)"/><path class="cls-13" d="M411.41,212.21q-14.3,4.59-28.58,9.17c-3.26,1-6.54,2-9.81,3-.76-1.15-1.25-2.76-2.32-3.4-8.68-5.17-17.49-10.14-26.23-15.22-3.89-2.27-7.72-4.65-12.06-7.27l5.58-3.85,15.55-5c2.19,2.15,4.06,4.8,6.6,6.35,10.48,6.38,21.12,12.49,31.8,18.52a8.2,8.2,0,0,0,4.94.64C401.75,214.31,406.57,213.2,411.41,212.21Z" transform="translate(-56.24 -171.97)"/><path class="cls-14" d="M337.77,238.38l-21.58,10a38.5,38.5,0,0,0-4.25-3.34c-10.72-6.28-21.56-12.36-32.19-18.78-1.68-1-2.51-3.43-3.74-5.19l20-9.71c-.54,1-1.08,1.93-1.64,2.95a21.56,21.56,0,0,0,2.42,1.92c12.06,7,24.13,13.91,36.25,20.76C334.43,237.75,336.18,237.92,337.77,238.38Z" transform="translate(-56.24 -171.97)"/><path class="cls-15" d="M421,210l-3.19.64L416,210c-1.65-1.49-3.12-3.27-5-4.41-12.25-7.5-24.58-14.87-36.88-22.29L399,177.52c1.5,1.57,2.74,3.58,4.54,4.64,10.82,6.33,21.8,12.38,32.64,18.7,1.55.9,2.56,2.73,3.83,4.12-1.1.36-2.18.77-3.3,1.05C431.49,207.36,426.26,208.65,421,210Z" transform="translate(-56.24 -171.97)"/><path class="cls-16" d="M374.14,183.28c12.3,7.42,24.63,14.79,36.88,22.29,1.86,1.14,3.33,2.92,5,4.41l-3,2-1.63.27c-4.83,1-9.65,2.1-14.52,2.89a8.2,8.2,0,0,1-4.94-.64c-10.68-6-21.32-12.14-31.8-18.52-2.54-1.55-4.41-4.2-6.6-6.35l.1,0,2.36-1.18,4.15-1.1,1.85-.75Z" transform="translate(-56.24 -171.97)"/><path class="cls-17" d="M337.77,238.38c-1.59-.46-3.34-.63-4.74-1.42-12.12-6.85-24.19-13.81-36.25-20.76a21.56,21.56,0,0,1-2.42-1.92c.56-1,1.1-2,1.64-2.95l17-7.3c1.07,1.36,1.88,3.19,3.27,4,10.77,6.23,21.72,12.15,32.45,18.46,1.84,1.09,2.87,3.55,4.27,5.38l-8.37,3.33L342,236.68Z" transform="translate(-56.24 -171.97)"/><path class="cls-18" d="M281,266.94c-10.09-6-20.27-11.89-30.21-18.15-3.59-2.27-8.79-2.87-9.89-8.22l13.46-7.78c2.15.7,4.47,1.07,6.42,2.13C271.9,241,283,247.24,294,253.63c1.39.81,2,3,3,4.48Z" transform="translate(-56.24 -171.97)"/><path class="cls-19" d="M440,205c-1.27-1.39-2.28-3.22-3.83-4.12-10.84-6.32-21.82-12.37-32.64-18.7-1.8-1.06-3-3.07-4.54-4.64l2.1-.27c3,1.4,5.67,1.19,7.9-1.46l4.12-.51,8.87-1.37,4.05-.31c1.9,6.78,8.77,7.73,13.49,10.94,8.36,5.68,17.47,10.24,26.17,15.42,1.07.64,1.57,2.25,2.33,3.42l-2.28.09L448,205l-2.59.13Z" transform="translate(-56.24 -171.97)"/><path class="cls-20" d="M297,258.11c-1-1.52-1.6-3.67-3-4.48-11-6.39-22.11-12.59-33.26-18.71-1.95-1.06-4.27-1.43-6.42-2.13L276,221c1.23,1.77,2.06,4.18,3.74,5.2,10.63,6.42,21.47,12.5,32.19,18.78a38.5,38.5,0,0,1,4.25,3.34Z" transform="translate(-56.24 -171.97)"/><path class="cls-21" d="M353,231.87c-1.4-1.83-2.43-4.29-4.27-5.38C338,220.18,327.05,214.26,316.28,208c-1.39-.81-2.2-2.64-3.27-4l25-9.41-5.58,3.85c4.34,2.62,8.17,5,12.06,7.27,8.74,5.08,17.55,10,26.23,15.22,1.07.64,1.56,2.25,2.32,3.4Z" transform="translate(-56.24 -171.97)"/><path class="cls-22" d="M220.37,253.71c4.23,2.11,8.55,4,12.67,6.36,8.47,4.76,16.87,9.62,25.17,14.66,1.28.78,1.88,2.69,2.79,4.08l-15.33,9.53c-11-6.32-22-12.53-32.84-19-2.34-1.4-4-3.89-6-5.87l.71-.57L210,261Z" transform="translate(-56.24 -171.97)"/><path class="cls-23" d="M262.29,596.12c-4.4,1.69-7.47-.21-11.13-2.8-6.46-4.56-13.7-8-20.58-12a48,48,0,0,1-4-3.06l5.34-3.16,3.48-1.23,9.59-3.77,6.75-2.83c1.08,1.37,1.9,3.15,3.29,4,4.46,2.86,9.28,5.19,13.68,8.13,4,2.66,7.62,5.86,11.41,8.82Z" transform="translate(-56.24 -171.97)"/><path class="cls-24" d="M382.14,361.58,380.19,366c-2.52,2.4-.89,4.46,1.33,4.45,4.49,0,9-1.12,13.45-1.77l2.15-.47,24.24,13.2L416,385.24l-2.14.51-1.87.71-11.77,2.75c-1.58-1.82-2.84-4.17-4.8-5.35-10.11-6-20.37-11.79-30.64-17.54-1.36-.76-3.08-.87-4.63-1.28L362,358c1-2.39,2-4.79,2.95-7.18.21-.59.43-1.17.65-1.76,4.27,1.9,8.46,4,12.83,5.63C381.91,356,383.47,357.88,382.14,361.58Z" transform="translate(-56.24 -171.97)"/><path class="cls-24" d="M206.81,263.42c2,2,3.68,4.47,6,5.87,10.85,6.52,21.88,12.73,32.84,19l-14.1,9.82c-12.3-7-24.6-14-36.85-21.1-.9-.52-1.36-1.81-2-2.74Z" transform="translate(-56.24 -171.97)"/><path class="cls-25" d="M192.7,274.32c.66.93,1.12,2.22,2,2.74,12.25,7.1,24.55,14.09,36.85,21.1l-15.35,11.41c-1.15-1.11-2.13-2.51-3.47-3.3q-15.56-9.11-31.25-18a21.91,21.91,0,0,0-3.69-1.34Z" transform="translate(-56.24 -171.97)"/><path class="cls-26" d="M280.09,588.24c-3.79-3-7.42-6.16-11.41-8.82-4.4-2.94-9.22-5.27-13.68-8.13-1.39-.9-2.21-2.68-3.29-4l16.84-8.39a6.84,6.84,0,0,1,2.44.34c8.9,5,17.78,10.08,26.59,15.26.81.48,1.05,1.92,1.55,2.91Z" transform="translate(-56.24 -171.97)"/><path class="cls-27" d="M347.69,517.87c-.24-5-.28-10-.82-15a6.25,6.25,0,0,0-2.67-4.16c-16.89-9.78-34.23-18.84-50.71-29.26-8.65-5.47-17.86-6.93-27.37-8.54-1.47-.25-2.77-1.46-4.14-2.23,6,1,12.11,1.74,18.1,3,15.49,3.2,30.85,7,45,14.31,11.13,5.78,20.62,13.43,23.23,26.42C349.32,507.31,348,512.7,347.69,517.87Z" transform="translate(-56.24 -171.97)"/><path class="cls-14" d="M405.76,299.43l18.88-16.09,21.86,13.9L426,313.93c-2.31-1.8-4.56-3.7-7-5.39C414.64,305.44,410.18,302.46,405.76,299.43Z" transform="translate(-56.24 -171.97)"/><path class="cls-28" d="M171.38,351.16c-8.67-4.76-17.41-9.42-26-14.34-2.44-1.4-4.44-3.55-6.64-5.36q3.7-5.23,7.4-10.46c3.69,1.36,7.59,2.31,11,4.17,7.27,4,14.3,8.34,21.35,12.68,1,.64,1.64,2,2.45,3Z" transform="translate(-56.24 -171.97)"/><path class="cls-29" d="M299.13,577.36c-.5-1-.74-2.43-1.55-2.91-8.81-5.18-17.69-10.24-26.59-15.26a6.84,6.84,0,0,0-2.44-.34L279.2,552l1.78-1.36c.87-.61,1.74-1.22,2.62-1.82,3.55,1.33,7.28,2.34,10.63,4.07,5.68,3,11.19,6.25,16.63,9.63,1.37.85,2.22,2.55,3.31,3.86Z" transform="translate(-56.24 -171.97)"/><path class="cls-20" d="M405.76,299.43c4.42,3,8.88,6,13.26,9.11,2.39,1.69,4.64,3.59,7,5.39l-17.18,16c-5.86-3.27-11.78-6.43-17.52-9.89-1.11-.68-1.5-2.55-2.23-3.87Z" transform="translate(-56.24 -171.97)"/><path class="cls-17" d="M446.5,297.24l-21.86-13.9,18.27-13.62c1.9,1.86,3.57,4.1,5.77,5.51,5.26,3.37,10.77,6.35,16.18,9.49Z" transform="translate(-56.24 -171.97)"/><path class="cls-25" d="M360.18,365c1.55.41,3.27.52,4.63,1.28,10.27,5.75,20.53,11.51,30.64,17.54,2,1.18,3.22,3.53,4.8,5.35l-.06-.07-2.07.61c-10.77,2.45-21.32,2.57-31-3.68C360.41,381.71,358,373.92,360.18,365Z" transform="translate(-56.24 -171.97)"/><path class="cls-21" d="M464.86,284.72c-5.41-3.14-10.92-6.12-16.18-9.49-2.2-1.41-3.87-3.65-5.77-5.51a37.49,37.49,0,0,1,32.69-4c2.13.68,4.47,3.8,4.81,6.08.29,2-1.54,5.17-3.38,6.47C473.32,280.91,469,282.62,464.86,284.72Z" transform="translate(-56.24 -171.97)"/><path class="cls-15" d="M553,248q-.13-10-.26-20c-.22-1.71-.45-3.43-.67-5.15,3.78,5.86,4.1,12.45,3.61,19.06a82.76,82.76,0,0,1-13,39.09c-2.56-.54-5.36-.6-7.65-1.71-5.27-2.54-10.31-5.58-15.44-8.42q2.68-5,5.39-9.89l3.09-5a33.73,33.73,0,0,1,4,1.6c4.32,2.41,8.49,5.14,13,7.23,1.1.51,4.23-.59,4.51-1.52C551,258.29,551.9,253.11,553,248Z" transform="translate(-56.24 -171.97)"/><path class="cls-27" d="M125.8,355.35c0,2.11-1,4.3,1.83,5.84,7.8,4.21,15.41,8.79,23.16,13.12a11.75,11.75,0,0,0,3.32.73l-9.87,23.37c.26-1.94.14-4,.87-5.77,1.59-3.73.31-5.6-3.08-7.34-5.13-2.64-9.93-5.87-15-8.72a68,68,0,0,0-6.25-2.77c-1.14,3.78-2.11,7-3.07,10.15A60.72,60.72,0,0,1,125.8,355.35Z" transform="translate(-56.24 -171.97)"/><path class="cls-22" d="M416,385.24l5.33-3.79-24.24-13.2L420,358.48c1,1.67,1.61,3.93,3.07,4.92,5.71,3.88,11.69,7.35,17.57,11Z" transform="translate(-56.24 -171.97)"/><path class="cls-13" d="M529.1,301.3l-11.94,14.09c-.93-1.25-1.64-2.82-2.85-3.69-2.4-1.72-5.19-2.91-7.63-4.6-4.9-3.4-9.66-7.15-15.25-1.17-.08.09-.32,0-.48.05L508.12,287c6.73,3.65,13.49,7.25,20.12,11.06C528.92,298.49,528.83,300.2,529.1,301.3Z" transform="translate(-56.24 -171.97)"/><path class="cls-16" d="M529.1,301.3c-.27-1.1-.18-2.81-.86-3.2-6.63-3.81-13.39-7.41-20.12-11.06l11.47-16.17c5.13,2.84,10.17,5.88,15.44,8.42,2.29,1.11,5.09,1.17,7.65,1.71Z" transform="translate(-56.24 -171.97)"/><path class="cls-18" d="M477.32,351.14l-15.85,11c-2.73-.5-5.7-.47-8.13-1.61a112.71,112.71,0,0,1-13.27-7.62c-1.36-.88-2.11-2.7-3.14-4.08l16.85-11.35c.46,1,.64,2.64,1.42,3C462.52,344.18,469.94,347.63,477.32,351.14Z" transform="translate(-56.24 -171.97)"/><path class="cls-11" d="M389,316.13c.73,1.32,1.12,3.19,2.23,3.87,5.74,3.46,11.66,6.62,17.52,9.89l-14.46,15.24L374.7,333.85Z" transform="translate(-56.24 -171.97)"/><path class="cls-11" d="M436.93,348.84c1,1.38,1.78,3.2,3.14,4.08a112.71,112.71,0,0,0,13.27,7.62c2.43,1.14,5.4,1.11,8.13,1.61l-15,9L444,372.68l-3.38,1.7c-5.87-3.63-11.85-7.1-17.56-11-1.46-1-2.07-3.25-3.07-4.92l1.51-.63,2.48-1.54Z" transform="translate(-56.24 -171.97)"/><path class="cls-14" d="M468.91,325.76l14.94-13.16c.93,1.59,1.46,3.78,2.84,4.65,5.92,3.78,12.09,7.17,18.18,10.7L490.7,340.38c-5.91-3.34-11.9-6.55-17.69-10.09C471.34,329.27,470.26,327.3,468.91,325.76Z" transform="translate(-56.24 -171.97)"/><path class="cls-17" d="M504.87,328c-6.09-3.53-12.26-6.92-18.18-10.7-1.38-.87-1.91-3.06-2.84-4.65L491,306c.16,0,.4,0,.48-.05,5.59-6,10.35-2.23,15.25,1.17,2.44,1.69,5.23,2.88,7.63,4.6,1.21.87,1.92,2.44,2.85,3.69Q511,321.67,504.87,328Z" transform="translate(-56.24 -171.97)"/><path class="cls-20" d="M468.91,325.76c1.35,1.54,2.43,3.51,4.1,4.53,5.79,3.54,11.78,6.75,17.69,10.09l-13.38,10.76c-7.38-3.51-14.8-7-22.12-10.62-.78-.39-1-2-1.42-3Z" transform="translate(-56.24 -171.97)"/><path class="cls-2" d="M117.76,384c1-3.19,1.93-6.37,3.07-10.15a68,68,0,0,1,6.25,2.77c5,2.85,9.82,6.08,15,8.72,3.39,1.74,4.67,3.61,3.08,7.34-.73,1.73-.61,3.83-.87,5.77-.06.52-.11,1-.16,1.57q-1,2-2.08,4c-1.61-.76-3.24-1.47-4.83-2.27Q127.59,396.89,118,392l-.55-5.78Z" transform="translate(-56.24 -171.97)"/><path class="cls-19" d="M553,248c-1.1,5.11-2,10.29-3.49,15.29-.28.93-3.41,2-4.51,1.52-4.46-2.09-8.63-4.82-13-7.23a33.73,33.73,0,0,0-4-1.6q.85-3.78,1.73-7.57c.4-1.71.8-3.43,1.21-5.14l.27-6.3c4.43,2.37,8.84,4.78,13.31,7.07C547.34,245.46,550.19,246.69,553,248Z" transform="translate(-56.24 -171.97)"/><path class="cls-4" d="M118,392q9.57,4.88,19.14,9.74c1.59.8,3.22,1.51,4.83,2.27q1,6.5,2,13l.18,1.89c-4.49-1.9-9-3.82-13.48-5.69-4.23-1.76-8.48-3.46-12.72-5.19-.07-.84-.14-1.67-.2-2.51-.33-2.51-.65-5-1-7.54,0-1,0-1.92,0-2.89Z" transform="translate(-56.24 -171.97)"/><path class="cls-22" d="M374.7,333.85l19.63,11.28q-6.09,8.22-12.19,16.45c1.33-3.7-.23-5.63-3.73-6.94-4.37-1.64-8.56-3.73-12.83-5.63Z" transform="translate(-56.24 -171.97)"/><path class="cls-12" d="M131,592.88c-4,.36-8.18,1.52-12,.91-9.54-1.51-19-3.61-28.38-5.94a22.33,22.33,0,0,1-8.68-4.59c-8.68-7.38-8.78-14.14-1.35-26.38a15.57,15.57,0,0,0,2.22-7.8c0-1.79-2-3.55-3.13-5.43L68.29,553l5.69-6.9c2.35-2.83,4.57-5.47,8.46-1.77a8.78,8.78,0,0,1,1.45,10.73,75.29,75.29,0,0,0-5.35,9.55c-3.45,8.06-1.76,14.93,6.11,18.59,7.56,3.52,15.89,5.72,24.1,7.43C116,592.16,123.59,592.19,131,592.88Z" transform="translate(-56.24 -171.97)"/><path class="cls-12" d="M170,589.72c-2.42.76-4.81,2-7.28,2.19-7.58.65-15.19.91-22.79,1.33l-2.32-.41c3.72-.45,7.44-1,11.18-1.34C155.86,590.84,162.94,590.3,170,589.72Z" transform="translate(-56.24 -171.97)"/><path class="cls-27" d="M229,454.05l-8-2.28,27.77,4.82Z" transform="translate(-56.24 -171.97)"/><path class="cls-27" d="M157.49,459.28,185,470Z" transform="translate(-56.24 -171.97)"/><path class="cls-13" d="M493.57,205.2c8.52.45,16.22,2.92,22.44,9.07Z" transform="translate(-56.24 -171.97)"/><path class="cls-13" d="M440,205l5.41.18L421,210c5.23-1.31,10.46-2.6,15.68-3.93C437.83,205.75,438.91,205.34,440,205Z" transform="translate(-56.24 -171.97)"/><path class="cls-13" d="M517,215c6.77,4,11.77,9.27,12.79,17.46Z" transform="translate(-56.24 -171.97)"/><path class="cls-27" d="M144,417q-1-6.5-2-13,1-2,2.08-4Q144.05,408.48,144,417Z" transform="translate(-56.24 -171.97)"/><path class="cls-5" d="M68.73,603.11,90,613.33C82.17,611.49,74.75,608.76,68.73,603.11Z" transform="translate(-56.24 -171.97)"/><path class="cls-12" d="M204,613.42c.4-.5.74-1.35,1.23-1.44,6.21-1.16,12.43-2.21,18.66-3.29Z" transform="translate(-56.24 -171.97)"/><path class="cls-13" d="M448,205l17.74-1.56Z" transform="translate(-56.24 -171.97)"/><path class="cls-27" d="M221.19,479.56,240,484.31Z" transform="translate(-56.24 -171.97)"/><path class="cls-22" d="M395,368.72c-4.48.65-9,1.73-13.45,1.77-2.22,0-3.85-2.05-1.33-4.45.05,2.66,1.34,3.93,4,3.67Z" transform="translate(-56.24 -171.97)"/><path class="cls-5" d="M61.71,563.29,56.31,580C55.8,573.69,58.14,568.29,61.71,563.29Z" transform="translate(-56.24 -171.97)"/><path class="cls-27" d="M193.47,472.26l17.53,5Z" transform="translate(-56.24 -171.97)"/><path class="cls-13" d="M478.21,203.5,492,205.08Z" transform="translate(-56.24 -171.97)"/><path class="cls-27" d="M242.13,484.69,255,487c0,.33,0,.66,0,1Z" transform="translate(-56.24 -171.97)"/><path class="cls-27" d="M306.05,519,304,524q-.06-6-.11-12C304.58,514.33,305.31,516.67,306.05,519Z" transform="translate(-56.24 -171.97)"/><path class="cls-13" d="M529.8,248.41q-.87,3.79-1.73,7.57L525,261Z" transform="translate(-56.24 -171.97)"/><path class="cls-27" d="M195,448l-8-3.22,11.5,3Z" transform="translate(-56.24 -171.97)"/><path class="cls-27" d="M259.83,458.44l-8.85-1.6Z" transform="translate(-56.24 -171.97)"/><path class="cls-27" d="M279.42,495.23l10.6,4.88Z" transform="translate(-56.24 -171.97)"/><path class="cls-13" d="M531.28,237l-.27,6.3-.09-7.77Z" transform="translate(-56.24 -171.97)"/><path class="cls-27" d="M118,392l-1.23,3.07q.35-4.43.68-8.85Q117.77,389.09,118,392Z" transform="translate(-56.24 -171.97)"/><path class="cls-27" d="M217.87,451.34,210,449.83Z" transform="translate(-56.24 -171.97)"/><path class="cls-5" d="M56.3,582l2.4,8.73Z" transform="translate(-56.24 -171.97)"/><path class="cls-12" d="M245,570.07l-9.59,3.77Z" transform="translate(-56.24 -171.97)"/><path class="cls-5" d="M100.12,615.68l7.89,1.51Z" transform="translate(-56.24 -171.97)"/><path class="cls-15" d="M409,175.79c-2.23,2.65-4.92,2.86-7.9,1.46Z" transform="translate(-56.24 -171.97)"/><path class="cls-27" d="M256.55,488.19l9.44,2.9Z" transform="translate(-56.24 -171.97)"/><path class="cls-15" d="M422,173.91l-8.87,1.37Z" transform="translate(-56.24 -171.97)"/><path class="cls-27" d="M207.78,449.53,201,448Z" transform="translate(-56.24 -171.97)"/><path class="cls-27" d="M116.84,398c.32,2.51.64,5,1,7.54Q117.32,401.73,116.84,398Z" transform="translate(-56.24 -171.97)"/><path class="cls-27" d="M126.38,434,131,440Z" transform="translate(-56.24 -171.97)"/><path class="cls-22" d="M364.93,350.77c-1,2.39-2,4.79-2.95,7.18C363,355.56,363.94,353.16,364.93,350.77Z" transform="translate(-56.24 -171.97)"/><path class="cls-27" d="M213.12,477.66l.89-.7,5,2.22Z" transform="translate(-56.24 -171.97)"/><path class="cls-5" d="M92.08,613.77,98,615.35Z" transform="translate(-56.24 -171.97)"/><path class="cls-12" d="M195,615l6.88-1.27Z" transform="translate(-56.24 -171.97)"/><path class="cls-27" d="M184.87,444.33l-4.9-1.46Z" transform="translate(-56.24 -171.97)"/><path class="cls-27" d="M147.49,425l-3.3-6.22Z" transform="translate(-56.24 -171.97)"/><path class="cls-15" d="M434,172.71l-5.84.65Z" transform="translate(-56.24 -171.97)"/><path class="cls-13" d="M413,211.94l3-2,1.84.62Z" transform="translate(-56.24 -171.97)"/><path class="cls-27" d="M187.18,470.59l4.8,1.49Z" transform="translate(-56.24 -171.97)"/><path class="cls-27" d="M292,501l5,3.27Z" transform="translate(-56.24 -171.97)"/><path class="cls-15" d="M478.81,173.44l-4.8-.66Z" transform="translate(-56.24 -171.97)"/><path class="cls-5" d="M63.16,598l3.91,3.83Z" transform="translate(-56.24 -171.97)"/><path class="cls-27" d="M177.85,442.37,174,441Z" transform="translate(-56.24 -171.97)"/><path class="cls-27" d="M345.7,524.88c-.23-1-.46-1.92-.68-2.88l2.06-1Z" transform="translate(-56.24 -171.97)"/><path class="cls-27" d="M172.55,440.75,168,438.92Z" transform="translate(-56.24 -171.97)"/><path class="cls-4" d="M118.37,411l1.45,4.6C119.34,414.07,118.85,412.54,118.37,411Z" transform="translate(-56.24 -171.97)"/><path class="cls-27" d="M302.91,526.88,300.48,531Z" transform="translate(-56.24 -171.97)"/><path class="cls-27" d="M268.13,491.67,272,493Z" transform="translate(-56.24 -171.97)"/><path class="cls-27" d="M274.17,493.56,278,495Z" transform="translate(-56.24 -171.97)"/><path class="cls-27" d="M138,447.05l3,2.36Z" transform="translate(-56.24 -171.97)"/><path class="cls-27" d="M151.62,456.23l3.38,1.82Z" transform="translate(-56.24 -171.97)"/><path class="cls-27" d="M297,536l-2.56,3C295.25,538,296.1,537,297,536Z" transform="translate(-56.24 -171.97)"/><path class="cls-15" d="M442,172.07l-2.88.16Z" transform="translate(-56.24 -171.97)"/><path class="cls-15" d="M468.92,172.2l-2.88-.12Z" transform="translate(-56.24 -171.97)"/><path class="cls-27" d="M299.94,532c-.5.67-1,1.34-1.49,2C299,533.31,299.45,532.65,299.94,532Z" transform="translate(-56.24 -171.97)"/><path class="cls-15" d="M485.86,174.36,484,174Z" transform="translate(-56.24 -171.97)"/><path class="cls-27" d="M290,543.35,288.19,545Z" transform="translate(-56.24 -171.97)"/><path class="cls-22" d="M398.12,389.75l2.07-.61Z" transform="translate(-56.24 -171.97)"/><path class="cls-15" d="M551.41,220l-1.2-2.57Z" transform="translate(-56.24 -171.97)"/><path class="cls-22" d="M444,372.68l2.49-1.53Z" transform="translate(-56.24 -171.97)"/><path class="cls-27" d="M165.49,437.78l-2.5-1.07Z" transform="translate(-56.24 -171.97)"/><path class="cls-22" d="M424,356.31l-2.48,1.54Z" transform="translate(-56.24 -171.97)"/><path class="cls-27" d="M144.8,452.15l2.17,1.39Z" transform="translate(-56.24 -171.97)"/><path class="cls-14" d="M342,236.68l2.63-1.48Z" transform="translate(-56.24 -171.97)"/><path class="cls-13" d="M356,188.44l-2.36,1.18Z" transform="translate(-56.24 -171.97)"/><path class="cls-4" d="M120.4,419l.79,1.92Z" transform="translate(-56.24 -171.97)"/><path class="cls-24" d="M210,261l-2.48,1.85Z" transform="translate(-56.24 -171.97)"/><path class="cls-5" d="M60.24,594l1.64,2.33Z" transform="translate(-56.24 -171.97)"/><path class="cls-15" d="M489.88,175.31l-1.87-.37Z" transform="translate(-56.24 -171.97)"/><path class="cls-22" d="M412,386.46l1.87-.71Z" transform="translate(-56.24 -171.97)"/><path class="cls-27" d="M161.35,435.82l-2.36-1.3Z" transform="translate(-56.24 -171.97)"/><path class="cls-15" d="M508.49,180.81,506,179.65Z" transform="translate(-56.24 -171.97)"/><path class="cls-13" d="M362,186.59l-1.85.75Z" transform="translate(-56.24 -171.97)"/><path class="cls-27" d="M281,550.63,279.2,552Z" transform="translate(-56.24 -171.97)"/><script xmlns=""/></svg>